<?xml version="1.0" encoding="UTF-8"?>
<svg id="Layer_1" xmlns="http://www.w3.org/2000/svg" viewBox="0 0 59.64 59.2">
  <defs>
    <style>
      .cls-1 {
        fill: #fff;
      }

      .cls-1, .cls-2 {
        stroke: #010101;
        stroke-linecap: round;
        stroke-miterlimit: 10;
      }

      .cls-3 {
        fill: #010101;
      }

      .cls-2 {
        fill: none;
      }
    </style>
  </defs>
  <path class="cls-3" d="M0,59.2s23.25-26.22,37.36-36.09c0,0-4.2-3.06-3.63-5.16,0,0-24.19,19.46-33.74,28.81v12.44Z"/>
  <g>
    <path class="cls-1" d="M29.36,17.95s-3.76,1.86,2.12,6.26c5.89,4.4,6.58.21,6.58.21,0,0-7.26-3.45-8.7-6.47Z"/>
    <path class="cls-1" d="M28.58,18.23s-.98-3.23-.25-5.2,1.84-4.67-2.56-8.11c-4.4-3.45.05-4.61.95-4.4s4.4.11,5.99,4.14,2.76,4.19,5.57,3.55c2.81-.64,7.79-5.89,12.94-4.83,0,0,2.07.64,2.6,2.28,0,0,3.61-.85,3.23,2.55,0,0,4.98-.11-.42,4.77,0,0-4.06,4.26-16.81,11.24,0,0-1.91,2.28-8.64-3.61l-2.6-2.39Z"/>
    <path class="cls-2" d="M53.85,5.67s-5.44.87-8.55,4.33"/>
    <path class="cls-2" d="M57.14,8.21s-5.84,1.64-9.62,4.79"/>
    <path class="cls-1" d="M43.47,9.2s4.35.83,4.4,6.17"/>
  </g>
</svg>