<?xml version="1.0" encoding="UTF-8"?>
<svg id="Layer_1" xmlns="http://www.w3.org/2000/svg" viewBox="0 0 100 100">
  <defs>
    <style>
      .cls-1 {
        stroke-linejoin: round;
      }

      .cls-1, .cls-2 {
        fill: #fff;
        stroke: #000;
        stroke-linecap: round;
        stroke-width: 2px;
      }

      .cls-2 {
        stroke-miterlimit: 10;
      }
    </style>
  </defs>
  <g>
    <g>
      <path class="cls-2" d="M66.47,24.19s5.43-5.07,14.92,5.22c9.49,10.29,3.58,15.45,1.13,16.01,0,0-.15-5.57-8.28-13.5,0,0-6.05-6.3-8.79-5.78l1.03-1.95Z"/>
      <path class="cls-2" d="M65.44,26.14s-14.39-1.76-21.8,5.84c-7.41,7.6-11.05,7.4-8.41,18.1,0,0,2.25,2.84,1.7,3.97s-1.85,7.21,2.03,10.99c3.88,3.79,3.05,3.53,3.05,3.53,0,0-10.83,10.01-11.73,10.94-6.09,6.24,3.67,15.76,9.9,9.38,0,0,5.05-2.02,18.74-18.33,13.69-16.3,11.93-2.16,11.93-2.16,0,0,2.09,12.4,14.81,10.07s-2.8-17.24-2.8-17.24c0,0-.91-15.08-.36-15.81s-3.52-14.04-17.07-19.28Z"/>
      <path class="cls-2" d="M36.96,53.16s1.17-3.57,3.35-5.59"/>
      <path class="cls-2" d="M42.01,68.57s4.44-3.33,8.28-10.1"/>
    </g>
    <line class="cls-1" x1="67.29" y1="41.8" x2="58.72" y2="39.12"/>
    <line class="cls-1" x1="65.42" y1="36.55" x2="60.33" y2="43.94"/>
  </g>
  <path d="M77.06,24.97s8.42-5.36,22.8-3.32l.14,11.03s-14.58,1.22-12.9,3.84"/>
</svg>