<?xml version="1.0" encoding="UTF-8"?>
<svg id="Layer_1" xmlns="http://www.w3.org/2000/svg" viewBox="0 0 100 100">
  <defs>
    <style>
      .cls-1 {
        fill: #fff;
        stroke: #231f20;
        stroke-linecap: round;
        stroke-linejoin: round;
        stroke-width: 2px;
      }
    </style>
  </defs>
  <g>
    <g>
      <path class="cls-1" d="M93.92,60.38s6.6-2.81,1.23-15.21-12.24-9.21-13.69-7.26c0,0,4.86,2.31,8.68,12.59,0,0,3.2,7.81,1.67,10.02l2.12-.14Z"/>
      <path class="cls-1" d="M91.8,60.52s-4.08,13.39-13.69,16.96c-9.61,3.57-10.86,6.86-19.28.34,0,0-1.62-3.1-2.84-3.06s-7.09-1.19-8.91-6.1c-1.82-4.91-1.92-4.07-1.92-4.07,0,0-13.08,5.64-14.25,6.08-7.9,2.93-12.48-9.41-4.4-12.41,0,0,3.76-3.67,23.52-9.37,19.75-5.7,6.57-9.69,6.57-9.69,0,0-10.13-6.7-3.09-17.02,7.04-10.32,14.13,9.22,14.13,9.22,0,0,12.96,6.71,13.82,6.5s11.02,8.61,10.34,22.61Z"/>
      <path class="cls-1" d="M56.79,75.09s3.61.36,6.25-.77"/>
      <path class="cls-1" d="M45.16,64.6s4.67-2.61,12.16-3.36"/>
    </g>
    <line class="cls-1" x1="78.69" y1="52.76" x2="77.7" y2="61.37"/>
    <line class="cls-1" x1="82.59" y1="56.46" x2="74.07" y2="58.06"/>
  </g>
  <path d="M97.38,50.72s8.03-5.33,11.85-18.83l-9.68-4.44s-6.78,12.4-8.44,9.89"/>
</svg>