<?xml version="1.0" encoding="UTF-8"?>
<svg id="Layer_1" xmlns="http://www.w3.org/2000/svg" viewBox="0 0 100 100">
  <defs>
    <style>
      .cls-1 {
        fill: #fff;
        stroke: #231f20;
        stroke-linecap: round;
        stroke-linejoin: round;
        stroke-width: 2px;
      }
    </style>
  </defs>
  <g>
    <g>
      <g>
        <path class="cls-1" d="M21.83,60.01s-6.6-2.81-1.23-15.21c5.38-12.41,12.24-9.21,13.69-7.26,0,0-4.86,2.31-8.68,12.59,0,0-3.2,7.81-1.67,10.02l-2.12-.14Z"/>
        <path class="cls-1" d="M23.95,60.16s4.08,13.39,13.69,16.96c9.61,3.57,10.86,6.86,19.28.34,0,0,1.62-3.1,2.84-3.06s7.09-1.19,8.91-6.1c1.82-4.91,1.92-4.07,1.92-4.07,0,0,13.08,5.64,14.25,6.08,7.9,2.93,12.48-9.41,4.4-12.41,0,0-3.76-3.67-23.52-9.37-19.75-5.7-6.57-9.69-6.57-9.69,0,0,10.13-6.7,3.09-17.02s-14.13,9.22-14.13,9.22c0,0-12.96,6.71-13.82,6.5s-11.02,8.61-10.34,22.61Z"/>
        <path class="cls-1" d="M58.96,74.73s-3.61.36-6.25-.77"/>
        <path class="cls-1" d="M70.59,64.23s-4.67-2.61-12.16-3.36"/>
      </g>
      <line class="cls-1" x1="37.06" y1="52.4" x2="38.05" y2="61.01"/>
      <line class="cls-1" x1="33.15" y1="56.1" x2="41.67" y2="57.7"/>
    </g>
    <path d="M18.37,50.35s-8.03-5.33-11.85-18.83l9.68-4.44s6.78,12.4,8.44,9.89"/>
  </g>
  <path d="M16.2,27.08S9.6,12.12,0,12.12v11.61s3.64.98,6.52,7.79"/>
</svg>