<?xml version="1.0" encoding="UTF-8"?>
<svg id="Layer_1" xmlns="http://www.w3.org/2000/svg" viewBox="0 0 60.74 60.56">
  <defs>
    <style>
      .cls-1 {
        stroke-linejoin: round;
      }

      .cls-1, .cls-2 {
        fill: #fff;
        stroke: #010101;
        stroke-linecap: round;
      }

      .cls-2 {
        stroke-miterlimit: 10;
      }

      .cls-3 {
        fill: #010101;
      }
    </style>
  </defs>
  <path class="cls-3" d="M60.74,57.92c-8.47-9.01-21.69-22.43-31.07-28.99,0,0,4.43-3.23,3.82-5.44,0,0,15.64,12.58,27.25,22.77v11.66Z"/>
  <path class="cls-2" d="M33.6,20.42s4.21,1.35-1.23,6.85c-5.45,5.5-6.82,1.25-6.82,1.25,0,0,7.03-4.72,8.05-8.1Z"/>
  <g>
    <g>
      <path class="cls-1" d="M24.69,29.31s-10.04,3.06-16.27-5.96c0,0-2.58-4.31,1.16-8,0,0-1.87-2.59,2.67-4.47,0,0-4.36-3.37-6.76-3.77,0,0-2.4-4,3.38-4.55s11.2,7.06,11.2,7.06c0,0,1.69-1.73,6.76.24,0,0,2.96-6.66,8.7-5.4,1.54.34,2.91,1.35,3.53,2.8.68,1.6.5,3.58-4.67,3.54,0,0-2.13,1.65-1.69,2.9s1.78,2.27,1.96,4.86"/>
      <path class="cls-2" d="M12.25,10.87s9.6,2.4,9.42,6.22-3.38,2.88-3.38,2.88"/>
      <path class="cls-2" d="M9.58,15.34s6.93.24,8.71,4.63-2.04,4.55-4.89,3.14"/>
    </g>
    <path class="cls-2" d="M34.65,18.56s-1.26,5.53-9.96,10.75"/>
  </g>
</svg>