<?xml version="1.0" encoding="UTF-8"?>
<svg id="Layer_1" xmlns="http://www.w3.org/2000/svg" viewBox="0 0 100 100">
  <defs>
    <style>
      .cls-1 {
        stroke-linejoin: round;
      }

      .cls-1, .cls-2 {
        fill: #fff;
        stroke: #000;
        stroke-linecap: round;
        stroke-width: 2px;
      }

      .cls-2 {
        stroke-miterlimit: 10;
      }
    </style>
  </defs>
  <g>
    <g>
      <path class="cls-2" d="M70.83,84.64s-.25,7.42-14.24,6.85c-13.99-.57-13.46-8.39-12.11-10.52,0,0,4.04,3.83,15.4,3.69,0,0,8.73.18,10.3-2.12l.65,2.1Z"/>
      <path class="cls-2" d="M70.17,82.54s11.42-8.93,11.29-19.54c-.13-10.61,2.58-13.04-6.85-18.75,0,0-3.6-.41-4.01-1.61s-3.79-6.4-9.21-6.34c-5.42.07-4.65-.34-4.65-.34,0,0,.58-14.74.56-16.03-.11-8.72-13.74-8.55-13.63.37,0,0-2.14,5-.29,26.21,1.85,21.21-6.91,9.96-6.91,9.96,0,0-10.25-7.29-17.59,3.36-7.34,10.65,14.17,10.21,14.17,10.21,0,0,11.31,10.02,11.44,10.93s12.42,7.44,25.7,1.57Z"/>
      <path class="cls-2" d="M71.21,43.29s1.7,3.36,1.58,6.32"/>
      <path class="cls-2" d="M56.73,35.96s-.78,5.49,1.29,13"/>
    </g>
    <line class="cls-1" x1="57.8" y1="72.77" x2="65.75" y2="68.6"/>
    <line class="cls-1" x1="62.82" y1="75.16" x2="61.2" y2="66.33"/>
  </g>
  <path d="M62.78,91.58v8.42h-15.11s-.15-4.37-.15-9.49"/>
</svg>