<?xml version="1.0" encoding="UTF-8"?>
<svg id="Layer_1" xmlns="http://www.w3.org/2000/svg" version="1.1" viewBox="0 0 375 484.2">
  <!-- Generator: Adobe Illustrator 29.0.1, SVG Export Plug-In . SVG Version: 2.1.0 Build 192)  -->
  <defs>
    <style>
      .st0 {
        stroke: #fff;
        stroke-linejoin: bevel;
      }

      .st0, .st1 {
        fill: none;
      }

      .st0, .st1, .st2, .st3, .st4, .st5 {
        stroke-linecap: round;
      }

      .st6 {
        fill: #010101;
      }

      .st1, .st2, .st3, .st4, .st5 {
        stroke: #010101;
      }

      .st1, .st2, .st3, .st5 {
        stroke-linejoin: round;
      }

      .st1, .st3, .st4 {
        stroke-width: 3px;
      }

      .st7, .st2, .st3, .st4 {
        fill: #fff;
      }

      .st2, .st5 {
        stroke-width: 5px;
      }

      .st4 {
        stroke-miterlimit: 10;
      }

      .st5 {
        fill: #f3f3f3;
      }
    </style>
  </defs>
  <g>
    <path class="st2" d="M86,114.5s-25.2-28,16.3-56.5c0,0,31.6-22.3,60.6,10.8,0,0,16.4-33.7,57.4-22.2,41,11.5,33.6,42.5,33.6,42.5,0,0,44.3-32.2,57.3,36.4,13,68.6-54.1,43.7-54.1,43.7,0,0-32.5,23.6-87.9,8.6,0,0-59.2,9.9-78.3-9.1,0,0-38.4-1.8-38.4-31.5s26.9-30.5,26.9-30.5l6.7,7.7h0Z"/>
    <path class="st5" d="M162.8,68.8s3.8,7.1,2.1,8.8"/>
    <path class="st5" d="M253.8,89.1s-8.9,4.4-6.9,7.5"/>
  </g>
  <path class="st6" d="M246.9,157.4s2-8.8-4.1-14.9c-6.1-6.1-14.1-7-19.4-3.6s-10.4,12.9-6.3,19.4,7.5,8.6,7.5,8.6c0,0,9-6.1,9.1-6.4s-4.3,0-7.3-4.7-.4-7.4,1.7-8.7,5.9-1.4,8.6,2.9c2.7,4.4-.2,8.8-2.7,10.4s12.9-2.9,12.9-2.9h0Z"/>
  <path class="st6" d="M246.9,157.4s-.7,6.9-15,15.9c-14.4,9-16,10-16,10l-5-8,13.7-8.5,9.1-6.4,13.2-3Z"/>
  <g>
    <path class="st3" d="M208.7,209.6s-.3-5.5-10.7-5-10,6.4-8.9,8c0,0,3-2.9,11.4-2.9,0,0,6.5-.2,7.7,1.5l.5-1.6h0Z"/>
    <path class="st4" d="M208.2,211.2s8.6,6.6,8.6,14.5,2,9.7-4.9,14.1c0,0-2.7.3-3,1.2s-2.8,4.8-6.8,4.8-3.5.3-3.5.3c0,0,.6,226,.6,226.9,0,6.5-10.2,6.5-10.2-.1,0,0-1.6-218.7-.5-234.5,1.2-15.8-5.2-7.4-5.2-7.4,0,0-7.6,5.5-13.2-2.3s10.5-7.8,10.5-7.8c0,0,8.4-7.6,8.4-8.3s9.2-5.7,19.2-1.4h0Z"/>
    <path class="st4" d="M209.4,240.5s1.2-2.5,1.1-4.7"/>
    <path class="st4" d="M198.6,246.1s-.6-4.1.8-9.7"/>
  </g>
  <g>
    <path class="st6" d="M271.3,69.7c-4.2,34.1-30,61.8-57.8,61.8s-46.9-27.7-42.7-61.8S200.9,8,228.6,8s46.9,27.6,42.7,61.8h0Z"/>
    <path class="st7" d="M235.5,69.7c-1.2,9.8-8.6,17.7-16.6,17.7s-13.4-7.9-12.2-17.7,8.6-17.7,16.6-17.7,13.4,7.9,12.2,17.7Z"/>
    <line class="st1" x1="224.2" y1="76.7" x2="217.9" y2="62.8"/>
    <line class="st1" x1="212.5" y1="75.1" x2="229.7" y2="64.4"/>
    <path class="st0" d="M186.3,42.9s15.3-27,36.4-29.1"/>
    <path class="st0" d="M253.9,96.6s-15.3,27-36.4,29.1"/>
    <path class="st0" d="M244.8,96.5s-10.9,20.4-25.4,22.2"/>
    <path class="st0" d="M193.8,42.9s10.9-20.4,25.4-22.2"/>
  </g>
  <path class="st6" d="M270.5,75.1s25.2,4.4,25.2,36.1-58,58-58,58l9.2-13s70.5-46.4,20.6-71.4"/>
  <path class="st6" d="M210.9,175.3s-16.5,10.4-16.5,31.4c0,0,6.3-2.8,9.1-.9,0,0,4-15.9,12.4-22.5"/>
  <g>
    <path class="st7" d="M109.7,132.3c-2.4,0-6-.7-9.3-4.2-3-3.2-5.8-20.4-1.9-36.7,2.4-10.2,8.3-23.4,22.4-28.5,3.8-1.3,7.3-2,10.6-2,10,0,15.6,6.2,18.6,11.4,5.1,8.8,5.3,19.1,3.3,22.7-4.7,8.2-13.8,9.2-13.9,9.2-.4,0-.7.2-1,.5l-2.1,2.4c-.4.4-.5,1-.3,1.5s.7.9,1.2.9c.9.1,1.9.2,3,.2,10.5,0,30.4-4.7,35.9-6l1.8,6-66.1,22.4h0s-.9.2-2.2.2h0Z"/>
    <path class="st6" d="M131.5,62.4c9.2,0,14.5,5.8,17.3,10.6,4.7,8.2,5.1,18,3.3,21.2-4.3,7.4-12.4,8.4-12.8,8.4-.8,0-1.5.4-2,1l-2.1,2.4c-.7.8-.9,2-.5,3,.4,1,1.3,1.8,2.4,1.9.9.1,2,.2,3.2.2,9.9,0,27.9-4.1,34.9-5.7l.9,3.2-64.6,21.9c-.2,0-.9.2-1.8.2-2.1,0-5.3-.6-8.2-3.7-2.3-2.5-5.4-18.8-1.5-35.3,2.3-9.8,8-22.6,21.5-27.4,3.6-1.3,7-2,10.1-2M131.5,59.4c-3.3,0-7,.7-11.1,2.1-31.2,11.2-27.1,61.2-21.1,67.6,3.7,3.9,7.8,4.7,10.4,4.7s2.7-.3,2.7-.3l67.5-22.9-2.6-8.8s-25.1,6.3-37,6.3-2,0-2.8-.2l2.1-2.4s9.9-1,15.1-9.9c4.5-7.8-1.2-36.3-23.2-36.3h0Z"/>
  </g>
  <polygon class="st6" points="148.4 108.4 151.5 119 179.9 110.7 177.3 101.9 148.4 108.4"/>
  <g>
    <path class="st7" d="M128.3,145.8c-2.4,0-6-.7-9.3-4.2-3-3.1-5.8-20.4-1.9-36.7,2.4-10.2,8.3-23.4,22.4-28.5,3.8-1.3,7.3-2,10.6-2,10,0,15.6,6.2,18.6,11.4,5.1,8.8,5.3,19.1,3.3,22.7-4.7,8.2-13.8,9.2-13.9,9.2-.4,0-.7.2-1,.5l-2.1,2.4c-.4.4-.5,1-.3,1.5s.7.9,1.2,1c.9.1,1.9.2,3,.2,10.5,0,30.4-4.7,35.9-6l1.8,6-66.1,22.4h0s-.9.2-2.2.2h0Z"/>
    <path class="st6" d="M150.1,75.9c9.2,0,14.5,5.8,17.3,10.6,4.7,8.2,5.1,18,3.3,21.2-4.3,7.4-12.4,8.4-12.8,8.4-.8,0-1.5.4-2,1l-2.1,2.4c-.7.8-.9,2-.5,3,.4,1,1.3,1.8,2.4,1.9.9.1,2,.2,3.2.2,9.9,0,27.9-4.1,34.9-5.7l.9,3.2-64.6,21.9c-.2,0-.9.2-1.9.2-2.1,0-5.3-.6-8.2-3.7-2.3-2.5-5.4-18.8-1.5-35.3,2.3-9.8,8-22.6,21.4-27.4,3.6-1.3,7-1.9,10.1-1.9M150.1,72.9c-3.3,0-7,.7-11.1,2.1-31.2,11.2-27.1,61.2-21.1,67.6,3.7,3.9,7.8,4.7,10.4,4.7s2.7-.3,2.7-.3l67.5-22.9-2.6-8.8s-25.1,6.3-37,6.3-2,0-2.8-.2l2.1-2.4s9.9-1,15.1-9.9c4.5-7.8-1.2-36.3-23.2-36.3h0Z"/>
  </g>
  <polygon class="st6" points="167.1 121.9 170.1 132.5 198.5 124.1 196 115.4 167.1 121.9"/>
  <line class="st1" x1="199.1" y1="218.6" x2="205.1" y2="221.6"/>
  <line class="st1" x1="202.8" y1="216.8" x2="201.7" y2="223.4"/>
</svg>