<?xml version="1.0" encoding="UTF-8"?>
<svg id="Layer_1" xmlns="http://www.w3.org/2000/svg" viewBox="0 0 375 484.24">
  <defs>
    <style>
      .cls-1 {
        fill: #f3f3f3;
      }

      .cls-1, .cls-2, .cls-3, .cls-4, .cls-5, .cls-6 {
        stroke-linecap: round;
      }

      .cls-1, .cls-3, .cls-4, .cls-5, .cls-6 {
        stroke: #010101;
      }

      .cls-1, .cls-3, .cls-4, .cls-6 {
        stroke-linejoin: round;
      }

      .cls-1, .cls-6 {
        stroke-width: 5px;
      }

      .cls-2 {
        stroke: #fff;
        stroke-linejoin: bevel;
      }

      .cls-2, .cls-3 {
        fill: none;
      }

      .cls-7, .cls-4, .cls-5, .cls-6 {
        fill: #fff;
      }

      .cls-3, .cls-4, .cls-5 {
        stroke-width: 3px;
      }

      .cls-5 {
        stroke-miterlimit: 10;
      }

      .cls-8 {
        fill: #010101;
      }
    </style>
  </defs>
  <g>
    <path class="cls-6" d="M85.98,114.47s-25.17-27.99,16.27-56.46c0,0,31.6-22.28,60.58,10.76,0,0,16.44-33.72,57.45-22.2,41.01,11.52,33.55,42.54,33.55,42.54,0,0,44.31-32.2,57.28,36.43,12.96,68.63-54.14,43.72-54.14,43.72,0,0-32.54,23.64-87.95,8.64,0,0-59.23,9.91-78.29-9.15,0,0-38.38-1.78-38.38-31.52s26.94-30.5,26.94-30.5l6.69,7.74Z"/>
    <path class="cls-1" d="M162.83,68.77s3.81,7.12,2.12,8.81"/>
    <path class="cls-1" d="M253.83,89.1s-8.9,4.41-6.86,7.46"/>
  </g>
  <path class="cls-8" d="M246.89,157.42s2.02-8.77-4.06-14.92c-6.08-6.14-14.11-6.98-19.44-3.64s-10.36,12.91-6.33,19.36,7.5,8.57,7.5,8.57c0,0,8.97-6.09,9.09-6.36s-4.34.08-7.32-4.69-.38-7.37,1.74-8.7,5.87-1.43,8.59,2.92c2.72,4.35-.16,8.78-2.69,10.36s12.91-2.9,12.91-2.9Z"/>
  <path class="cls-8" d="M246.89,157.42s-.69,6.89-15.04,15.86c-14.35,8.97-15.98,9.99-15.98,9.99l-5-7.99,13.7-8.49,9.09-6.36,13.23-3.01Z"/>
  <g>
    <path class="cls-5" d="M208.71,209.61s-.26-5.54-10.69-4.98-9.96,6.39-8.94,7.96c0,0,2.98-2.9,11.45-2.9,0,0,6.51-.21,7.71,1.49l.47-1.58Z"/>
    <path class="cls-5" d="M208.24,211.19s8.6,6.56,8.6,14.48c0,7.92,2.04,9.71-4.94,14.05,0,0-2.68.34-2.98,1.23s-2.77,4.81-6.81,4.81c-4.05,0-3.47.3-3.47.3,0,0,.57,225.96.57,226.93,0,6.51-10.17,6.51-10.17-.15,0,0-1.65-218.69-.46-234.53,1.18-15.84-5.25-7.37-5.25-7.37,0,0-7.58,5.54-13.16-2.34s10.47-7.75,10.47-7.75c0,0,8.35-7.58,8.43-8.26s9.2-5.66,19.16-1.41Z"/>
    <path class="cls-5" d="M209.38,240.46s1.24-2.52,1.12-4.73"/>
    <path class="cls-5" d="M198.65,246.06s-.64-4.09.84-9.71"/>
  </g>
  <g>
    <path class="cls-8" d="M271.31,69.73c-4.17,34.11-30.04,61.76-57.79,61.76s-46.85-27.65-42.68-61.76S200.88,7.97,228.62,7.97s46.85,27.65,42.68,61.76Z"/>
    <path class="cls-7" d="M235.49,69.73c-1.2,9.79-8.62,17.73-16.59,17.73s-13.45-7.94-12.25-17.73,8.62-17.73,16.59-17.73,13.45,7.94,12.25,17.73Z"/>
    <line class="cls-3" x1="224.24" y1="76.65" x2="217.9" y2="62.82"/>
    <line class="cls-3" x1="212.46" y1="75.09" x2="229.68" y2="64.38"/>
    <path class="cls-2" d="M186.33,42.86s15.33-27.04,36.41-29.09"/>
    <path class="cls-2" d="M253.86,96.61s-15.33,27.04-36.41,29.09"/>
    <path class="cls-2" d="M244.8,96.53s-10.87,20.44-25.44,22.21"/>
    <path class="cls-2" d="M193.77,42.94s10.87-20.44,25.44-22.21"/>
  </g>
  <path class="cls-8" d="M270.46,75.09s25.23,4.37,25.23,36.07-57.97,58.01-57.97,58.01l9.17-12.98s70.52-46.4,20.63-71.45"/>
  <path class="cls-8" d="M210.86,175.28s-16.52,10.42-16.52,31.35c0,0,6.31-2.84,9.12-.88,0,0,4.04-15.95,12.45-22.52"/>
  <g>
    <path class="cls-7" d="M109.69,132.33c-2.44,0-6.03-.73-9.33-4.21-2.98-3.15-5.77-20.4-1.89-36.7,2.42-10.19,8.28-23.39,22.4-28.48,3.75-1.35,7.32-2.04,10.61-2.04,9.96,0,15.63,6.18,18.64,11.37,5.07,8.75,5.32,19.13,3.27,22.72-4.7,8.2-13.81,9.17-13.9,9.18-.38.04-.73.22-.99.51l-2.09,2.39c-.36.42-.47,1-.27,1.52.2.52.66.88,1.21.95.85.11,1.85.16,2.97.16,10.48,0,30.43-4.68,35.94-6.02l1.75,6-66.11,22.41h0s-.9.22-2.22.22h0Z"/>
    <path class="cls-8" d="M131.49,62.4c9.24,0,14.53,5.78,17.34,10.62,4.73,8.17,5.1,18.02,3.26,21.22-4.27,7.45-12.41,8.4-12.75,8.43-.76.07-1.47.44-1.97,1.01l-2.09,2.39c-.73.83-.94,2-.54,3.04.39,1.04,1.33,1.77,2.43,1.91.91.12,1.98.17,3.16.17,9.89,0,27.94-4.06,34.9-5.72l.95,3.25-64.64,21.91c-.19.04-.88.18-1.85.18-2.14,0-5.31-.65-8.24-3.74-2.35-2.49-5.44-18.83-1.52-35.32,2.34-9.83,7.96-22.56,21.45-27.41,3.59-1.29,6.99-1.95,10.1-1.95M131.49,59.4c-3.33,0-7.02.65-11.12,2.13-31.18,11.23-27.14,61.23-21.09,67.62,3.71,3.92,7.8,4.68,10.41,4.68,1.65,0,2.7-.3,2.7-.3l67.47-22.88-2.55-8.76s-25.05,6.32-36.98,6.32c-1.03,0-1.97-.05-2.78-.15l2.09-2.39s9.92-.96,15.06-9.93c4.46-7.79-1.2-36.33-23.21-36.33h0Z"/>
  </g>
  <polygon class="cls-8" points="148.42 108.4 151.46 119.02 179.86 110.65 177.31 101.88 148.42 108.4"/>
  <g>
    <path class="cls-7" d="M128.34,145.82c-2.44,0-6.03-.73-9.32-4.21-2.98-3.15-5.77-20.4-1.89-36.7,2.42-10.19,8.28-23.39,22.4-28.48,3.75-1.35,7.32-2.04,10.61-2.04,9.96,0,15.63,6.18,18.64,11.37,5.07,8.75,5.32,19.13,3.27,22.72-4.67,8.15-13.81,9.17-13.91,9.18-.38.04-.73.22-.98.51l-2.09,2.39c-.36.42-.47,1-.27,1.52.2.52.66.89,1.21.96.85.11,1.85.16,2.97.16,10.48,0,30.43-4.68,35.94-6.02l1.75,6-66.11,22.41h0s-.9.22-2.22.22h0Z"/>
    <path class="cls-8" d="M150.13,75.9c9.24,0,14.53,5.78,17.34,10.62,4.73,8.17,5.1,18.02,3.26,21.22-4.27,7.45-12.41,8.4-12.75,8.43-.76.07-1.47.44-1.97,1.01l-2.09,2.39c-.73.83-.94,2-.54,3.04.39,1.04,1.33,1.77,2.43,1.91.91.12,1.98.17,3.16.17,9.89,0,27.94-4.06,34.9-5.72l.95,3.25-64.64,21.91c-.19.04-.88.18-1.85.18-2.14,0-5.31-.65-8.24-3.74-2.35-2.49-5.44-18.83-1.52-35.32,2.34-9.83,7.96-22.56,21.45-27.41,3.59-1.29,6.99-1.95,10.1-1.95M150.13,72.9c-3.33,0-7.02.65-11.12,2.13-31.18,11.23-27.14,61.23-21.09,67.62,3.71,3.92,7.8,4.68,10.41,4.68,1.65,0,2.7-.3,2.7-.3l67.47-22.88-2.55-8.76s-25.05,6.32-36.98,6.32c-1.03,0-1.97-.05-2.78-.15l2.09-2.39s9.92-.96,15.06-9.93c4.46-7.79-1.2-36.33-23.21-36.33h0Z"/>
  </g>
  <polygon class="cls-8" points="167.06 121.89 170.11 132.52 198.51 124.14 195.96 115.38 167.06 121.89"/>
  <line class="cls-4" x1="199.1" y1="218.59" x2="205.07" y2="221.63"/>
  <line class="cls-4" x1="202.83" y1="216.76" x2="201.7" y2="223.36"/>
</svg>