<?xml version="1.0" encoding="UTF-8"?>
<svg id="Layer_1" xmlns="http://www.w3.org/2000/svg" viewBox="0 0 94.08 50">
  <defs>
    <style>
      .cls-1 {
        fill: #ba9bc9;
      }

      .cls-1, .cls-2, .cls-3, .cls-4, .cls-5 {
        stroke: #231f20;
        stroke-width: .5px;
      }

      .cls-1, .cls-2, .cls-3, .cls-5 {
        stroke-linecap: round;
        stroke-linejoin: round;
      }

      .cls-2, .cls-6, .cls-4 {
        fill: #010101;
      }

      .cls-7 {
        fill: #231f20;
      }

      .cls-8, .cls-5 {
        fill: #fff;
      }

      .cls-3, .cls-9 {
        fill: none;
      }

      .cls-4, .cls-9 {
        stroke-miterlimit: 10;
      }

      .cls-9 {
        stroke: #fff;
        stroke-width: .25px;
      }
    </style>
  </defs>
  <g>
    <g>
      <path class="cls-8" d="M34.27,49.69c-2.01,0-2.85-1.46-2.85-1.47l-8.04-16.28,1.65-.9c.71,1.17,4.15,6.76,6.08,8.25.04.04.1.05.15.05.03,0,.07,0,.1-.02.08-.04.14-.12.15-.21l.06-.82c0-.06-.02-.13-.06-.17-.02-.02-1.55-1.93-.89-4.34.37-1.37,3.35-3.89,6.61-3.89,2.34,0,4.23,1.37,5.44,3.95,1.68,3.56.32,7.09-1.12,9.43-2.38,3.87-6.04,6.4-7.16,6.43h-.12Z"/>
      <path class="cls-7" d="M37.22,30.13c2.27,0,4.03,1.28,5.22,3.81,1.63,3.46.3,6.91-1.1,9.19-2.38,3.87-6,6.28-6.96,6.31h-.11c-1.84,0-2.6-1.29-2.62-1.32l-7.94-16.08,1.23-.67c.93,1.52,4.15,6.68,6.01,8.12.09.07.2.1.31.1.07,0,.14-.01.2-.04.17-.08.28-.24.29-.42l.06-.82c0-.13-.03-.25-.11-.35-.01-.02-1.46-1.83-.84-4.12.34-1.27,3.27-3.71,6.37-3.71M37.22,29.63c-3.25,0-6.43,2.51-6.85,4.08-.7,2.58.94,4.57.94,4.57l-.06.82c-2.1-1.62-6.14-8.39-6.14-8.39l-2.07,1.13,8.15,16.51s.89,1.6,3.07,1.6c.04,0,.08,0,.12,0,2.27-.06,12.15-8.46,8.5-16.21-1.43-3.05-3.57-4.1-5.67-4.1h0Z"/>
    </g>
    <polygon class="cls-2" points="29.2 37.16 26.71 38.55 22.66 31.11 24.6 29.87 29.2 37.16"/>
  </g>
  <g>
    <g>
      <path class="cls-8" d="M28.51,49.69c-2.01,0-2.85-1.46-2.85-1.47l-8.04-16.28,1.65-.9c.71,1.17,4.15,6.76,6.08,8.25.04.04.1.05.15.05.03,0,.07,0,.1-.02.08-.04.14-.12.15-.21l.06-.82c0-.06-.02-.13-.06-.17-.02-.02-1.55-1.93-.89-4.34.37-1.37,3.35-3.89,6.61-3.89,2.34,0,4.23,1.37,5.44,3.95,1.68,3.56.32,7.09-1.12,9.43-2.38,3.87-6.04,6.4-7.16,6.43h-.12Z"/>
      <path class="cls-7" d="M31.46,30.13c2.27,0,4.03,1.28,5.22,3.81,1.63,3.46.3,6.91-1.1,9.19-2.38,3.87-6,6.28-6.96,6.31h-.11c-1.84,0-2.6-1.29-2.62-1.32l-7.94-16.08,1.23-.67c.93,1.52,4.15,6.68,6.01,8.12.09.07.2.1.31.1.07,0,.14-.01.2-.04.17-.08.28-.24.29-.42l.06-.82c0-.13-.03-.25-.11-.35-.01-.02-1.47-1.82-.84-4.12.34-1.27,3.27-3.71,6.37-3.71M31.46,29.63c-3.25,0-6.43,2.51-6.85,4.08-.7,2.58.94,4.57.94,4.57l-.06.82c-2.1-1.62-6.14-8.39-6.14-8.39l-2.07,1.13,8.15,16.51s.89,1.6,3.07,1.6c.04,0,.08,0,.12,0,2.27-.06,12.15-8.46,8.5-16.21-1.43-3.05-3.57-4.1-5.67-4.1h0Z"/>
    </g>
    <polygon class="cls-2" points="23.44 37.16 20.94 38.55 17.29 31.83 19.35 30.69 23.44 37.16"/>
  </g>
  <g>
    <path class="cls-6" d="M1.31,20.47c2.91,8.39,10.95,13.97,17.96,12.45s10.33-9.54,7.42-17.93S15.73,1.03,8.73,2.54C1.72,4.05-1.6,12.08,1.31,20.47Z"/>
    <path class="cls-5" d="M10.35,18.51c.84,2.41,3.14,4.01,5.15,3.57s2.96-2.74,2.13-5.14-3.14-4.01-5.15-3.57-2.96,2.74-2.13,5.14Z"/>
    <line class="cls-3" x1="13.16" y1="19.51" x2="14.83" y2="15.95"/>
    <line class="cls-3" x1="16.21" y1="19.13" x2="11.78" y2="16.33"/>
    <path class="cls-9" d="M21.31,9.05S15.96,3.05,10.53,3.68"/>
    <path class="cls-9" d="M7.18,26.3s5.34,5.99,10.78,5.36"/>
    <path class="cls-9" d="M9.46,25.79s3.86,4.57,7.63,4.22"/>
    <path class="cls-9" d="M19.43,9.47s-3.86-4.57-7.63-4.22"/>
  </g>
  <path class="cls-4" d="M49.95,18.49s1.39,3.28.58,2.9c-17.26-8.08-23.61-5.19-23.61-5.19l-1.21-2.59s14.75-1.32,24.23,4.87Z"/>
  <path class="cls-4" d="M23.77,9.47s13.88-5.4,30.19,2.09v1.81s-18.09-5.92-28.84-1.82"/>
  <path class="cls-1" d="M55.74,24.86s6.27-4.8,1.96-11.77,5.95-5.26,12.4-4.91c6.46.36,10.7,1.57,10.53,4.01s-11.27.69-9.73,3.3c1.54,2.61,22.21,1.13,22.6,4.06s1.57,14.41-5.5,13.85-24.62-7.17-21.6-2.98,9.39,1.56,8.6,5.32-15.81,2.09-19.2-.32-3.75-9.54-.07-10.57Z"/>
  <g>
    <path class="cls-5" d="M55.93,10.34s-2.41-1.01-1.91,2.5,1.23,3.63,2.1,3.46-1.38-4.53-.27-5.79"/>
    <g>
      <path class="cls-8" d="M61.37,17.19c-.46,0-.96-.1-1.49-.3-.03-.01-.06-.02-.09-.02-.04,0-.07,0-.1.02,0,0-.57.25-1.3.25s-1.32-.23-1.83-.7c-.62-1.17-1.57-3.4-1.26-4.13.02-.1.43-3.54,2.75-4.44.49-.19,1.12-.29,1.81-.29,1.9,0,3.94.71,4.74,1.64.29.34.41.69.36,1.05-.11.74-.21,1.22-.28,1.54-.13.65-.16.79.07,1.26.13.27.05,1.09-.26,1.7-.14.27-.3.45-.43.47-.09.02-.16.08-.19.16-.03.07-.64,1.76-2.52,1.76Z"/>
      <path class="cls-7" d="M59.87,7.85h0c1.83,0,3.79.67,4.55,1.56.24.28.34.56.3.85-.11.74-.21,1.21-.27,1.53-.14.67-.18.87.09,1.42.06.13.07.67-.15,1.25-.14.38-.3.55-.35.57-.18.03-.32.16-.38.33-.02.06-.59,1.59-2.28,1.59-.43,0-.9-.1-1.41-.28-.06-.02-.12-.03-.17-.03-.07,0-.14.01-.21.04,0,0-.53.23-1.19.23-.62,0-1.15-.19-1.6-.58-.79-1.48-1.49-3.36-1.26-3.9.02-.05.03-.09.04-.14,0-.03.39-3.32,2.57-4.16.46-.18,1.06-.27,1.72-.27M59.87,7.35c-.7,0-1.36.1-1.9.3-2.49.96-2.89,4.57-2.89,4.57-.47,1.11,1.32,4.41,1.32,4.41.65.6,1.38.76,2,.76.79,0,1.4-.28,1.4-.28.6.22,1.12.32,1.58.32,2.09,0,2.76-1.93,2.76-1.93.68-.12,1.16-1.93.87-2.53-.3-.6-.11-.45.23-2.65.26-1.72-2.81-2.98-5.35-2.98h0Z"/>
    </g>
    <path class="cls-5" d="M62.63,10.58s1.2.55,1.65,1.45"/>
    <path class="cls-5" d="M61.73,12.71s2.6,1.48,2.32,2.34"/>
  </g>
  <g>
    <path class="cls-5" d="M52.27,16.09s-2.71-1.14-2.15,2.81,1.39,4.09,2.36,3.89-1.55-5.09-.31-6.51"/>
    <g>
      <path class="cls-8" d="M58.38,23.83c-.52,0-1.09-.11-1.69-.34-.03-.01-.06-.02-.09-.02-.04,0-.07,0-.1.02,0,0-.65.29-1.47.29s-1.5-.27-2.08-.79c-.49-.94-1.82-3.75-1.42-4.68.02-.11.48-3.99,3.11-5.01.55-.21,1.26-.33,2.05-.33,2.14,0,4.45.8,5.36,1.86.33.39.47.79.41,1.2-.13.84-.24,1.37-.31,1.74-.15.73-.18.88.08,1.4.16.32.07,1.24-.29,1.94-.16.32-.35.52-.51.55-.09.02-.16.08-.19.16-.03.08-.73,2-2.86,2Z"/>
      <path class="cls-7" d="M56.69,13.23h0c2.08,0,4.3.76,5.17,1.77.29.33.4.66.35,1-.13.83-.24,1.37-.31,1.72-.15.74-.2.96.1,1.56.1.21.06.96-.24,1.62-.18.39-.34.5-.37.51-.18.03-.32.16-.38.33-.03.07-.68,1.83-2.63,1.83-.49,0-1.03-.11-1.6-.32-.06-.02-.12-.03-.18-.03-.07,0-.14.02-.21.04,0,0-.6.26-1.37.26-.71,0-1.33-.23-1.85-.67-.76-1.42-1.71-3.77-1.42-4.45.02-.04.03-.09.04-.14,0-.04.45-3.77,2.93-4.73.52-.2,1.2-.31,1.96-.31M56.69,12.73c-.79,0-1.53.11-2.14.34-2.8,1.08-3.25,5.14-3.25,5.14-.53,1.24,1.48,4.96,1.48,4.96.73.67,1.55.86,2.25.86.89,0,1.57-.31,1.57-.31.67.25,1.26.36,1.78.36,2.35,0,3.1-2.17,3.1-2.17.77-.14,1.31-2.18.97-2.85-.33-.67-.12-.51.25-2.99.3-1.94-3.16-3.35-6.01-3.35h0Z"/>
    </g>
    <path class="cls-5" d="M59.81,16.37s1.35.62,1.86,1.63"/>
    <path class="cls-5" d="M58.79,18.76s2.93,1.66,2.61,2.63"/>
  </g>
</svg>