<?xml version="1.0" encoding="UTF-8"?>
<svg id="Layer_1" xmlns="http://www.w3.org/2000/svg" viewBox="0 0 88.03 68.62">
  <defs>
    <style>
      .cls-1 {
        fill: #231f20;
      }

      .cls-2, .cls-3, .cls-4, .cls-5 {
        stroke-linecap: round;
      }

      .cls-2, .cls-3, .cls-5 {
        stroke: #231f20;
        stroke-linejoin: round;
        stroke-width: .75px;
      }

      .cls-2, .cls-4 {
        fill: none;
      }

      .cls-6, .cls-5 {
        fill: #fff;
      }

      .cls-3 {
        fill: #010101;
      }

      .cls-4 {
        stroke: #fff;
        stroke-linejoin: bevel;
        stroke-width: .5px;
      }
    </style>
  </defs>
  <g>
    <path class="cls-3" d="M69.83,11.95l-2.25-1.82c-9.07,7.11-11.67,11.24-11.67,11.24l2.38,2.18s10.22-9.94,11.54-11.6Z"/>
    <g>
      <g>
        <path class="cls-6" d="M71.28,12.93c-4.89,0-5.04-4.37-5.04-4.55-.05-.38.75-.52.75-.52.32-.03.63-.05.93-.05,4.47,0,5,3.92,5.06,4.7-.2.28-.78.39-1.12.41-.21.01-.4.02-.58.02h0Z"/>
        <path class="cls-1" d="M67.92,8.17c3.85,0,4.55,3.04,4.68,4.2-.16.07-.49.14-.76.16-.19.01-.37.02-.55.02-4.4,0-4.65-3.73-4.67-4.18.09-.06.28-.13.41-.15.31-.03.61-.05.9-.05M67.92,7.42c-.31,0-.64.02-.98.05,0,0-1.17.17-1.08.9,0,0,.1,4.92,5.42,4.92.19,0,.39,0,.6-.02,0,0,1.54-.07,1.48-.81-.06-.7-.57-5.05-5.44-5.05h0Z"/>
      </g>
      <g>
        <path class="cls-6" d="M86.53,12.02c-2.47,0-7.58-3.21-7.63-3.24-.06-.04-.13-.06-.2-.06-.1,0-.21.04-.28.12-.03.03-2.54,2.8-5.02,2.8-.66,0-1.27-.2-1.81-.6-.51-.38-.97-.71-1.39-1.01-2.12-1.53-2.91-2.11-3.04-3.01-.02-.08-.61-2.02.5-3.32.12-.14.12-.35,0-.49-.07-.08-.18-.13-.28-.13-.07,0-.14.02-.2.06-.03.02-2.94,1.84-4.76,1.84-.82,0-1.05-.38-1.16-.66-.28-.75-.17-1.54.32-2.23.76-1.09,2.24-1.71,4.06-1.71.76,0,1.57.11,2.42.32.53.14,2.01.62,2.46,1.23.07.1.19.15.3.15.04,0,.09,0,.13-.02.01,0,1.03-.38,2.38-.38s2.65.39,3.69,1.17c.06.05.14.07.22.07h.01c.76,0,6.61.13,6.99,4.17.01.13.09.24.2.3.04.02,4.06,2.18,3.07,4.2-.05.11-.21.43-.97.43Z"/>
        <path class="cls-1" d="M65.63.75c.73,0,1.51.1,2.33.31.72.18,1.93.65,2.24,1.09.14.2.37.31.61.31.09,0,.18-.02.26-.05,0,0,.98-.36,2.25-.36s2.49.37,3.46,1.09c.13.1.29.15.45.15,0,0,.01,0,.02,0h.07c.63,0,6.2.11,6.55,3.83.02.25.17.47.4.59.97.52,3.6,2.31,2.91,3.71-.07.14-.29.22-.64.22-1.96,0-6.03-2.3-7.43-3.18-.12-.08-.26-.12-.4-.12-.21,0-.41.09-.56.25-.02.03-2.43,2.67-4.74,2.67-.59,0-1.11-.17-1.59-.53-.51-.38-.98-.72-1.39-1.02-2.11-1.53-2.78-2.05-2.89-2.76,0-.04-.02-.08-.03-.12,0-.02-.53-1.76.44-2.9.24-.28.24-.7,0-.98-.15-.17-.36-.26-.57-.26-.14,0-.28.04-.4.12-.79.5-3.14,1.78-4.56,1.78-.65,0-.75-.27-.81-.41-.23-.63-.14-1.3.27-1.89.67-.97,2.08-1.55,3.75-1.55M65.63,0c-3.65,0-5.5,2.38-4.73,4.45.25.66.81.9,1.51.9,1.96,0,4.96-1.9,4.96-1.9-1.27,1.48-.59,3.61-.59,3.61.18,1.26,1.37,1.91,4.57,4.27.65.48,1.35.67,2.03.67,2.68,0,5.3-2.92,5.3-2.92,0,0,5.22,3.3,7.83,3.3.62,0,1.09-.18,1.31-.64,1.17-2.38-3.23-4.7-3.23-4.7-.41-4.37-6.51-4.51-7.29-4.51-.05,0-.08,0-.08,0-1.3-.97-2.73-1.24-3.91-1.24-1.45,0-2.52.4-2.52.4-.63-.86-2.67-1.37-2.67-1.37-.91-.23-1.75-.33-2.51-.33h0Z"/>
      </g>
    </g>
  </g>
  <g>
    <path class="cls-3" d="M31.36,29.41c.41,9.81,7.15,18.27,15.05,18.9,7.9.63,13.97-6.81,13.55-16.62s-7.15-18.27-15.05-18.9-13.97,6.81-13.55,16.62Z"/>
    <path class="cls-5" d="M41.56,30.23c.12,2.81,2.05,5.24,4.32,5.42s4.01-1.95,3.89-4.77c-.12-2.81-2.05-5.24-4.32-5.42s-4.01,1.95-3.89,4.77Z"/>
    <line class="cls-2" x1="44.61" y1="32.45" x2="46.72" y2="28.66"/>
    <line class="cls-2" x1="47.99" y1="32.27" x2="43.34" y2="28.83"/>
    <path class="cls-4" d="M56.17,23.69s-3.75-8.05-9.71-9.11"/>
    <path class="cls-4" d="M35.72,37.46s3.75,8.05,9.71,9.11"/>
    <path class="cls-4" d="M38.3,37.64s2.63,6.07,6.74,6.9"/>
    <path class="cls-4" d="M54.05,23.54s-2.63-6.07-6.74-6.9"/>
  </g>
  <g>
    <g>
      <path class="cls-6" d="M17.61,47.83c-1.88,0-5.17-1.52-5.41-2.5-.02-.07-.05-.22.26-.41,2.22.01,5.83.52,6.07,2.36.03.22-.04.3-.07.33-.12.14-.43.22-.84.22Z"/>
      <path class="cls-1" d="M12.58,45.3c2.2.03,5.38.58,5.57,2.03,0,.02,0,.03,0,.04-.05.03-.2.08-.54.08-1.82,0-4.74-1.47-5.03-2.16M18.18,47.36h0,0M12.42,44.54s-.06,0-.06,0c-2.19,1.17,2.78,3.66,5.26,3.66.82,0,1.37-.28,1.28-.97-.33-2.61-5.82-2.69-6.47-2.69h0Z"/>
    </g>
    <g>
      <path class="cls-6" d="M9.71,57.57c-.55,0-1.06-.2-1.42-.56-.06-.06-.08-.11-.08-.19.02-.53,1.12-1.47,1.93-2.16,1.09-.93,1.81-1.55,1.52-2.13-.22-.44-.73-.67-1.5-.67-.17,0-.33.01-.48.03-.46.05-.89.26-1.21.6-2.37,2.51-4.51,2.89-5.58,2.89-1.43,0-2.51-.67-2.51-1.56s2.1-1.72,6.25-2.47c.96-.17,1.09-.2,1.11-.51.01-.17-.1-.34-.27-.39.03,0,0-.16-.03-.26-.07-.29-.18-.76-.65-.76-.05,0-.23.02-.51.07-.79.12-2.42.37-3.82.37-1.57,0-1.95-.31-2.04-.45-.02-.04-.1-.15.01-.42.34-.86,1.75-1.33,3.97-1.33.89,0,1.72.07,2.26.14.07,0,.15.01.22.01.47,0,.93-.17,1.29-.48,1.26-1.09,3.24-1.37,4.03-1.44h.1c.12,0,.25.01.37.05l4.54,1.46c.36.12.63.36.73.65.1.29.39.45.8.45.01,0,.1,0,.11,0,.07,0,.13-.03.19-.07,2.32-1.71,3.62-2.07,4.3-2.07.75,0,.91.43.92.48.25.73.2,1.3-.12,1.75-.88,1.23-3.61,1.37-4.74,1.37-.62,0-1.19.27-1.56.73-1,1.24-2.59,1.37-3.2,1.41h-.18c-.49.07-.74.59-.73,1.57,0,.18-.04.36-.12.51-1.08,2.17-2.5,3.41-3.9,3.41Z"/>
      <path class="cls-1" d="M12.31,46.24c.08,0,.17.01.25.04l4.54,1.46c.24.08.43.24.49.41.15.44.58.7,1.15.7.08,0,.14,0,.14,0,.13-.01.27-.06.38-.14,2.36-1.74,3.57-2,4.08-2,.45,0,.55.19.57.24.3.88.02,1.27-.08,1.4-.54.76-2.2,1.21-4.43,1.21-.74,0-1.41.32-1.86.87-.89,1.12-2.32,1.23-2.93,1.27-.08,0-.14.01-.19.02-.71.08-1.07.73-1.07,1.93,0,.12-.03.24-.08.34-1.01,2.04-2.31,3.21-3.57,3.21-.43,0-.83-.15-1.12-.41.13-.42,1.24-1.37,1.79-1.84,1.18-1.01,2.03-1.74,1.61-2.59-.2-.4-.68-.88-1.83-.88-.18,0-.36.01-.52.03-.55.06-1.06.31-1.45.72-2.27,2.41-4.3,2.77-5.3,2.77-1.32,0-2.14-.62-2.14-1.18,0-.17.29-1.08,5.94-2.1.94-.17,1.37-.25,1.41-.86.02-.25-.09-.48-.28-.64-.01-.04-.02-.09-.03-.13-.07-.29-.25-1.05-1.01-1.05-.1,0-.2.01-.57.07-.78.12-2.39.36-3.76.36-1.24,0-1.62-.2-1.71-.27,0-.02.01-.05.03-.09.27-.69,1.6-1.09,3.62-1.09.87,0,1.68.07,2.22.13.09.01.18.02.27.02.56,0,1.11-.2,1.53-.58,1.21-1.05,3.23-1.3,3.82-1.35.02,0,.04,0,.07,0M12.31,45.49s-.09,0-.13,0c-.8.07-2.89.36-4.24,1.53-.29.25-.66.39-1.04.39-.06,0-.12,0-.18-.01-.57-.07-1.41-.14-2.3-.14-1.8,0-3.82.3-4.32,1.57-.43,1.09.83,1.39,2.38,1.39,1.87,0,4.14-.44,4.33-.44.34,0,.22.89.56,1.01.34.11-7.35.89-7.35,3.02,0,1.06,1.17,1.93,2.89,1.93s3.77-.8,5.85-3.01c.26-.27.6-.45.98-.48.14-.01.29-.02.44-.02.48,0,.98.1,1.16.46.39.78-4.5,3.38-3.3,4.58.41.41,1,.67,1.69.67,1.29,0,2.9-.93,4.24-3.62.1-.21.16-.44.16-.68,0-.43.05-1.14.4-1.18.45-.05,2.41-.06,3.62-1.57.31-.38.78-.59,1.27-.59,1.93,0,6.32-.35,5.22-3.6,0,0-.21-.75-1.28-.75-.85,0-2.25.47-4.52,2.15,0,0-.03,0-.07,0-.13,0-.38-.02-.44-.2-.15-.43-.53-.74-.97-.88l-4.54-1.46c-.16-.05-.32-.08-.48-.08h0Z"/>
    </g>
  </g>
  <g>
    <line class="cls-5" x1="12.8" y1="47.93" x2="12.41" y2="49.8"/>
    <line class="cls-5" x1="13.58" y1="48.82" x2="11.68" y2="49"/>
  </g>
  <path class="cls-3" d="M14.56,44.69s1.74-9.34,6.83-10.69c5.09-1.34,11.06-2.29,11.06-2.29l1.34,3.52s-10.73-.28-12.91,3.63-3.28,6.71-3.28,6.71l-3.05-.88Z"/>
  <path class="cls-3" d="M46.11,46.61s-.2,8.65-2.38,8.23-3.07.33-1.9,2.07,3.58,2.4,4.47.99,3.61-10.22,2.21-11.29-2.4,0-2.4,0Z"/>
  <path class="cls-5" d="M32.3,63.42c.03.86-.21,4.83.46,4.83,7.77,0,9.11-.2,12.52-.8s2.16-5.97-.86-6.47-2.09-2.88-2.09-5.25-1.73-2.52-6.19-2.16-3.85,9.19-3.85,9.19v.67Z"/>
  <path class="cls-3" d="M57.13,41.42s7.65,7.65,10.28,12.57c0,0-.73,3.25-1.68,2.84s-7.5-9.33-10.52-12.4c0,0,2.09-2.41,1.92-3Z"/>
  <g>
    <path class="cls-6" d="M67.69,64c-.09,0-.16,0-.22-.03-.81-.27-2.52-2.34-3.13-4.56-.25-.92-.4-2.2.36-3.06,1.15-1.32,1.72-1.51,2.03-1.62.33-.11.57-.23.66-.8.63-2.38,2.85-8.78,5.39-9.3.68-.14,1.34-.21,1.95-.21,2.01,0,3.52.75,4.37,2.18,1.17,1.98.89,4.97-.77,7.99-3.2,5.85-8.96,9.41-10.63,9.41Z"/>
    <path class="cls-1" d="M74.73,44.8h0c1.87,0,3.27.69,4.04,1.99,1.11,1.87.82,4.72-.77,7.62-3.14,5.73-8.7,9.21-10.3,9.21-.07,0-.1,0-.1,0-.64-.21-2.3-2.17-2.88-4.3-.23-.83-.37-1.98.28-2.72,1.08-1.24,1.59-1.42,1.87-1.51.47-.16.79-.39.9-1.05.87-3.28,3.02-8.61,5.1-9.03.66-.13,1.29-.2,1.87-.2M74.73,44.05c-.62,0-1.3.07-2.02.22-3.33.68-5.69,9.61-5.69,9.61-.14.92-.52-.17-2.6,2.23-2.08,2.4,1.35,7.7,2.94,8.22.1.03.21.05.34.05,2,0,7.78-3.78,10.96-9.6,3.04-5.55,1.44-10.72-3.93-10.72h0Z"/>
  </g>
</svg>