<?xml version="1.0" encoding="UTF-8"?>
<svg id="Layer_1" xmlns="http://www.w3.org/2000/svg" viewBox="0 0 100 100">
  <defs>
    <style>
      .cls-1, .cls-2, .cls-3, .cls-4 {
        fill: #fff;
      }

      .cls-2, .cls-3, .cls-5, .cls-6 {
        stroke: #010101;
      }

      .cls-2, .cls-5 {
        stroke-linejoin: round;
      }

      .cls-2, .cls-5, .cls-7 {
        stroke-linecap: round;
      }

      .cls-3, .cls-6 {
        stroke-miterlimit: 10;
      }

      .cls-5, .cls-7 {
        fill: none;
      }

      .cls-8 {
        fill: #010101;
      }

      .cls-7 {
        stroke: #fff;
        stroke-linejoin: bevel;
        stroke-width: .5px;
      }

      .cls-4 {
        opacity: .46;
      }

      .cls-6 {
        fill: #333;
      }
    </style>
  </defs>
  <g>
    <path class="cls-8" d="M94.67,50s-29.27,18.05-30.74,17.49-1.24-3.73-1.24-3.73c28.14-14.25,30.69-18.03,30.69-18.03l1.3,4.27Z"/>
    <path class="cls-6" d="M52.73,67.75s-5-25.38-7.5-26.38c0,0-4.05-.16-3.81.91s7.01,27.85,7.01,27.85l4.3-2.38Z"/>
    <g>
      <path class="cls-8" d="M118.93,33.74c6.15,13.56,2.81,29.63-7.45,35.88-10.26,6.26-23.57.34-29.72-13.22-6.15-13.56-2.81-29.63,7.45-35.88,10.26-6.26,23.57-.34,29.72,13.22Z"/>
      <path class="cls-1" d="M105.68,41.82c1.77,3.89.81,8.5-2.14,10.3s-6.77.1-8.53-3.8-.81-8.5,2.14-10.3,6.77-.1,8.53,3.8Z"/>
      <line class="cls-5" x1="103.07" y1="46.92" x2="97.61" y2="43.23"/>
      <line class="cls-5" x1="98.37" y1="48.99" x2="102.32" y2="41.15"/>
      <path class="cls-7" d="M81.43,42.96s-.43-13.46,6.91-18.97"/>
      <path class="cls-7" d="M84.2,41.32s-.59-10.01,4.4-13.95"/>
    </g>
    <g>
      <path class="cls-2" d="M61.47,61.48s.34,6.65,2.33,7.04,2.33-6.4.25-7.38-2.59.34-2.59.34Z"/>
      <g>
        <path class="cls-2" d="M61.53,61.37s-5.64-6.12-8.83-5.27-5.12-.18-7.13,4.85c0,0-7.27,4.42-2.84,8.93,0,0-.2,4.48,4.19,5.2,0,0,2.6,8.74,13.63.07,0,0,4.27-4.52,2.69-8.74s-1.71-5.03-1.71-5.03Z"/>
        <path class="cls-2" d="M46.92,75.07s1.54.46,5-1.11"/>
        <path class="cls-2" d="M42.72,69.87s.96,1.46,6.56-.65"/>
        <path class="cls-2" d="M46.21,64.88c-.55-1.03-.64-3.93-.64-3.93"/>
      </g>
    </g>
  </g>
  <path class="cls-4" d="M36.86,18.83l-6.18,8.04c-.34.45-.46,1.06-.3,1.63l2.37,8.45c.05.19.13.36.24.52l2.12,3.13c.27.4.68.65,1.13.67l7.31.4c.15,0,.31,0,.45-.05.95-.28,4.65-1.36,4.79-1.48.16-.14,3.35-5,3.43-5.27.07-.23.66-3.27.86-4.31.04-.23.05-.46,0-.69l-.51-2.88c-.03-.14-.07-.28-.12-.41-.33-.77-1.53-3.55-1.63-3.67-.11-.14-3.18-2.36-3.42-2.5s-5.01-1.82-5.13-1.91c-.1-.08-3.22-.22-4.22-.26-.2,0-.4.03-.59.11h0c-.24.1-.45.27-.61.48Z"/>
  <path class="cls-3" d="M53.36,22.86c-3.41-7.77-11.39-10.89-17.83-6.97-6.43,3.92-8.89,13.4-5.47,21.18,3.41,7.77,11.39,10.89,17.83,6.97,6.43-3.92,8.89-13.4,5.47-21.18ZM45.77,39.22c-4.25,2.59-9.51.54-11.75-4.57-2.24-5.11-.62-11.36,3.63-13.95,4.25-2.59,9.51-.54,11.75,4.57s.62,11.36-3.63,13.95Z"/>
</svg>