<?xml version="1.0" encoding="UTF-8"?>
<svg id="Layer_1" xmlns="http://www.w3.org/2000/svg" viewBox="0 0 92.45 51.11">
  <defs>
    <style>
      .cls-1 {
        fill: #fff;
        stroke: #010101;
        stroke-linecap: round;
        stroke-linejoin: round;
        stroke-width: 4px;
      }
    </style>
  </defs>
  <path class="cls-1" d="M13.42,25.88s-8.55-9.51,5.53-19.18c0,0,10.73-7.57,20.58,3.65,0,0,5.58-11.45,19.51-7.54,13.93,3.91,11.4,14.45,11.4,14.45,0,0,15.05-10.94,19.45,12.37,4.4,23.31-18.39,14.85-18.39,14.85,0,0-11.05,8.03-29.87,2.94,0,0-20.12,3.37-26.59-3.11,0,0-13.04-.6-13.04-10.71s9.15-10.36,9.15-10.36l2.27,2.63Z"/>
</svg>